<svg width="18" height="30" viewBox="0 0 18 30" fill="none" xmlns="http://www.w3.org/2000/svg">
<rect x="6" width="3" height="3" fill="white"/>
<rect x="9" width="3" height="3" fill="#C0CCF8"/>
<rect x="3" y="6" width="3" height="3" fill="white"/>
<rect x="12" y="6" width="3" height="3" fill="#C0CCF8"/>
<rect x="3" y="12" width="3" height="3" fill="#BECAF6"/>
<rect x="12" y="12" width="3" height="3" fill="#8095EB"/>
<rect y="12" width="3" height="3" fill="#BECAF6"/>
<rect x="15" y="12" width="3" height="3" fill="#8095EB"/>
<rect x="6" y="6" width="3" height="3" fill="white"/>
<rect x="9" y="6" width="3" height="3" fill="#C0CCF8"/>
<rect x="6" y="12" width="3" height="3" fill="#BECAF6"/>
<rect x="9" y="12" width="3" height="3" fill="#8095EB"/>
<rect x="6" y="3" width="3" height="3" fill="white"/>
<rect x="9" y="3" width="3" height="3" fill="#C0CCF8"/>
<rect x="3" y="9" width="3" height="3" fill="white"/>
<rect x="12" y="9" width="3" height="3" fill="#C0CCF8"/>
<rect x="3" y="15" width="3" height="3" fill="#BECAF6"/>
<rect x="12" y="15" width="3" height="3" fill="#8095EB"/>
<rect x="12" y="24" width="3" height="3" fill="#BECBF7"/>
<rect x="12" y="21" width="3" height="3" fill="#BECBF7"/>
<rect x="15" y="21" width="3" height="3" fill="#BECBF7"/>
<rect x="15" y="18" width="3" height="3" fill="#BECBF7"/>
<rect x="6" y="9" width="3" height="3" fill="#BECAF6"/>
<rect x="9" y="9" width="3" height="3" fill="#8095EB"/>
<rect x="6" y="15" width="3" height="3" fill="#BECAF6"/>
<rect x="6" y="27" width="3" height="3" fill="white"/>
<rect x="9" y="15" width="3" height="3" fill="#8095EB"/>
<rect x="9" y="27" width="3" height="3" fill="#BECBF7"/>
<rect x="6" y="18" width="3" height="3" fill="#BECAF6"/>
<rect x="6" y="24" width="3" height="3" fill="white"/>
<rect x="3" y="24" width="3" height="3" fill="white"/>
<rect x="3" y="21" width="3" height="3" fill="white"/>
<rect y="21" width="3" height="3" fill="white"/>
<rect y="18" width="3" height="3" fill="white"/>
<rect x="9" y="18" width="3" height="3" fill="#8095EB"/>
<rect x="9" y="24" width="3" height="3" fill="#BECBF7"/>
</svg>
