<svg width="100" height="36" viewBox="0 0 100 36" fill="none" xmlns="http://www.w3.org/2000/svg">
<path d="M59.999 5.49902H64.999V10.499H59.999V5.49902Z" fill="#00D9EB"/>
<path d="M14.999 5.49902H9.99902V10.499H14.999V5.49902Z" fill="#FDFFFC"/>
<path d="M9.99901 25.499H4.99902V30.499H9.99901V25.499Z" fill="#FDFFFC"/>
<path d="M9.99901 25.499L9.99902 15.499H14.999V25.499H9.99901Z" fill="#FDFFFC"/>
<path fill-rule="evenodd" clip-rule="evenodd" d="M19.999 25.499H24.999V20.499H34.999V5.49902H19.999V25.499ZM24.999 15.499H29.999V10.499H24.999V15.499Z" fill="#FDFFFC"/>
<path d="M39.999 5.49902H49.999V10.499H44.999V15.499H49.999V10.499H54.999V25.499H49.999V20.499H39.999V5.49902Z" fill="#FDFFFC"/>
<path d="M49.999 25.499L49.999 30.499H44.999V25.499H49.999Z" fill="#FDFFFC"/>
<path d="M59.999 25.499V30.499H54.999V25.499H59.999Z" fill="#FDFFFC"/>
<path fill-rule="evenodd" clip-rule="evenodd" d="M89.999 10.499V5.49902H64.999V15.499H59.999V25.499H69.999V20.499H89.999V25.499H84.999V30.499H89.999V25.499H94.999V10.499H89.999ZM89.999 10.499V15.499H84.999V10.499H89.999ZM74.999 10.499H69.999V15.499H74.999V10.499Z" fill="#FDFFFC"/>
<path d="M74.999 10.499H69.999V15.499H74.999V10.499Z" fill="black"/>
<path d="M49.999 10.499H44.999V15.499H49.999V10.499Z" fill="black"/>
<path d="M29.999 10.499H24.999V15.499H29.999V10.499Z" fill="black"/>
<path fill-rule="evenodd" clip-rule="evenodd" d="M94.999 5.49902V0.499023H4.99902V20.499H-0.000976562V35.499H14.999V30.499H39.999V35.499H64.999V30.499H74.999V25.499H79.999V35.499H94.999V30.499H99.999V5.49902H94.999ZM59.999 5.49902H89.999V10.499H84.999V15.499H89.999V10.499H94.999V25.499H89.999V20.499H69.999V25.499H59.999V15.499H64.999V10.499H59.999V5.49902ZM54.999 25.499H59.999V30.499H54.999V25.499ZM49.999 25.499H54.999V10.499H49.999V5.49902H39.999V20.499H49.999V25.499ZM49.999 25.499L49.999 30.499H44.999V25.499H49.999ZM89.999 25.499V30.499H84.999V25.499H89.999ZM19.999 5.49902H34.999V20.499H24.999V25.499H19.999V5.49902ZM9.99902 5.49902H14.999V10.499H9.99902V5.49902ZM9.99902 15.499H14.999V25.499H9.99901L9.99902 15.499ZM9.99901 25.499V30.499H4.99902V25.499H9.99901Z" fill="black"/>
</svg>
